<?xml version="1.0" encoding="UTF-8" standalone="no"?>
<!-- Created with Inkscape (http://www.inkscape.org/) -->

<svg
   xmlns:dc="http://purl.org/dc/elements/1.1/"
   xmlns:cc="http://creativecommons.org/ns#"
   xmlns:rdf="http://www.w3.org/1999/02/22-rdf-syntax-ns#"
   xmlns:svg="http://www.w3.org/2000/svg"
   xmlns="http://www.w3.org/2000/svg"
   xmlns:sodipodi="http://sodipodi.sourceforge.net/DTD/sodipodi-0.dtd"
   xmlns:inkscape="http://www.inkscape.org/namespaces/inkscape"
   id="svg3529"
   version="1.1"
   inkscape:version="0.48.4 r9939"
   width="696.88544"
   height="120.33983"
   sodipodi:docname="logo.svg">
  <metadata
     id="metadata3535">
    <rdf:RDF>
      <cc:Work
         rdf:about="">
        <dc:format>image/svg+xml</dc:format>
        <dc:type
           rdf:resource="http://purl.org/dc/dcmitype/StillImage" />
      </cc:Work>
    </rdf:RDF>
  </metadata>
  <defs
     id="defs3533" />
  <sodipodi:namedview
     pagecolor="#ffffff"
     bordercolor="#666666"
     borderopacity="1"
     objecttolerance="10"
     gridtolerance="10"
     guidetolerance="10"
     inkscape:pageopacity="0"
     inkscape:pageshadow="2"
     inkscape:window-width="923"
     inkscape:window-height="723"
     id="namedview3531"
     showgrid="false"
     inkscape:zoom="1"
     inkscape:cx="355.68362"
     inkscape:cy="40.273126"
     inkscape:window-x="1238"
     inkscape:window-y="402"
     inkscape:window-maximized="0"
     inkscape:current-layer="svg3529"
     showguides="true"
     inkscape:guide-bbox="true"
     fit-margin-top="0"
     fit-margin-left="0"
     fit-margin-right="0"
     fit-margin-bottom="0" />
  <g
     id="g3627"
     transform="scale(0.25006325,0.25006325)">
    <path
       inkscape:connector-curvature="0"
       id="path3621"
       d="m 580.31458,7.8233071 c -0.0409,0.1624 -0.27449,1.4203 -0.51915,2.7952999 -0.24467,1.375 -4.75584,19.9467 -10.02484,41.2704 -5.26899,21.3238 -9.34893,39.3726 -9.06653,40.1085 0.2824,0.736 2.23951,1.6146 4.34914,1.9526 5.51719,0.88399 21.48525,6.331433 30.19794,10.301933 20.00028,9.11442 44.16199,31.14112 53.57126,48.83753 3.52754,6.6344 4.02174,10.45119 2.17552,16.80196 -0.87005,2.99287 -29.03801,72.12208 -62.59547,153.62049 -33.55746,81.4984 -61.01356,148.83763 -61.01356,149.64274 0,1.26736 7.37735,1.46384 54.96482,1.46384 52.29537,0 55.01251,-0.0891 55.94695,-1.83513 2.02355,-3.78106 49.96026,-158.3575 60.14622,-193.9472 2.78899,-9.74472 5.29722,-18.50517 5.57384,-19.46767 0.51952,-1.80767 2.85998,-2.38128 3.76188,-0.92197 0.28147,0.45541 12.95184,48.71791 28.15638,107.25 15.20455,58.53208 28.10592,106.98447 28.66971,107.67197 1.27902,1.55965 105.29216,1.84869 106.25223,0.29526 C 871.35979,472.85667 806.85728,294.56755 788.17645,245.1186 746.42371,134.59734 713.24142,77.532207 672.52437,46.226307 c -15.22577,-11.7065 -35.50472,-22.7444 -53.13548,-28.9218 -9.87627,-3.4605 -38.82198,-10.4839999 -39.07431,-9.4811999 z"
       style="fill:#ab2a3b" />
    <path
       inkscape:connector-curvature="0"
       id="path3619"
       d="M 85.388896,480.94126 C 58.986873,478.62045 34.779144,473.14935 13.650227,464.72787 -1.5890925,458.65385 -1.2545565,458.97321 1.4161965,453.04873 c 0.49588,-1.1 4.337725,-15.725 8.537433,-32.5 4.1997085,-16.775 7.9592605,-30.84605 8.3545595,-31.26901 0.395298,-0.42295 4.73767,1.09502 9.649716,3.37327 11.875015,5.50774 32.042633,12.08623 47.430991,15.47156 11.002697,2.42051 14.716009,2.76034 31.000004,2.83704 16.66425,0.0785 19.22678,-0.14122 25.82424,-2.21419 5.9557,-1.87133 8.31913,-3.2727 12.6488,-7.5 4.557,-4.44927 5.49157,-6.01822 6.48321,-10.88393 2.85619,-14.01462 -3.66332,-24.11262 -20.62787,-31.95026 -4.60191,-2.12609 -16.5709,-6.62547 -26.59775,-9.99862 C 73.661225,338.16805 56.653273,329.79083 40.888897,317.27051 17.101722,298.37837 6.1664025,272.28293 9.3671335,242.04873 11.897705,218.14488 20.749974,200.14104 38.244787,183.31705 c 18.626655,-17.91243 40.721467,-28.62757 70.033493,-33.96357 9.44297,-1.71901 15.81126,-2.12979 34.11062,-2.20028 22.86642,-0.0881 31.47631,0.67757 50.27343,4.47073 18.13913,3.66038 41.74119,12.04498 41.70631,14.81611 -0.0111,0.88478 -3.77935,16.23369 -8.37382,34.10869 -6.08786,23.68514 -8.72683,32.44716 -9.72975,32.30519 -0.7569,-0.10715 -6.45395,-2.27942 -12.66012,-4.82727 -28.35013,-11.63873 -60.34247,-15.3891 -79.85764,-9.36147 -13.77048,4.25326 -20.87251,16.28877 -17.26936,29.26563 2.96745,10.68737 17.57637,19.44474 51.91094,31.11822 53.23787,18.10045 77.34449,38.02657 87.20772,72.08444 2.02437,6.99017 2.291,10.07744 2.28133,26.41526 -0.01,16.2665 -0.28749,19.46584 -2.30148,26.5 -10.06357,35.14854 -38.06529,59.73085 -80.68757,70.83444 -16.9352,4.41182 -28.39616,5.74611 -52.49999,6.11206 -12.375,0.18788 -24.525004,0.16359 -27.000004,-0.054 z"
       style="fill:#ab2a3b" />
    <path
       inkscape:connector-curvature="0"
       id="path3617"
       d="m 411.90904,480.50492 c -30.45764,-4.79638 -55.67425,-20.21667 -68.57751,-41.93607 -4.36405,-7.34579 -9.27251,-20.00647 -11.52967,-29.73915 -4.57488,-19.72648 -4.71127,-22.37197 -5.32505,-103.28097 l -0.58792,-77.5 -21.2623,-0.26992 -21.2623,-0.26993 0.2623,-36.73007 0.2623,-36.73008 21,-0.5 21,-0.5 0.5,-30 0.5,-29.999999 48,-13.1136 c 26.4,-7.21248 48.3375,-12.92342 48.75,-12.69098 0.4125,0.23244 0.75689,19.18356 0.76531,42.113599 0.008,22.93004 0.36886,42.24762 0.80098,42.92797 0.59468,0.9363 9.4025,1.30091 36.23468,1.5 l 35.44903,0.26301 0.26232,36.75 0.26232,36.75 -35.99327,0 -35.99327,0 -0.59144,2.35649 c -0.32529,1.29607 -0.39792,31.10857 -0.1614,66.25 0.46766,69.48481 0.63997,71.79193 6.30459,84.41438 3.09504,6.89667 9.23932,13.05681 16.19045,16.23226 4.20888,1.92272 6.5055,2.16098 21.2197,2.20147 9.075,0.025 18.81126,-0.32728 21.63613,-0.78278 l 5.13613,-0.82817 0.68462,22.32817 c 0.37654,12.2805 0.54028,29.30318 0.36387,37.82818 l -0.32075,15.5 -7.77981,2.21187 c -4.2789,1.21652 -12.3789,2.92801 -18,3.8033 -12.0943,1.88327 -49.50904,2.80965 -58.20004,1.44102 z"
       style="fill:#ab2a3b" />
    <path
       id="path3615"
       d="m 1237.9688,147.0625 c -12.3045,0.076 -24.7437,0.83506 -32.6876,2.28125 -21.4894,3.91222 -40.3306,11.17615 -56.625,21.78125 -10.8763,7.0788 -12.6523,8.49511 -23.625,19.25 -25.9947,25.47912 -42.1198,56.97873 -49.3124,96.1875 -2.6836,14.62935 -2.3972,51.34146 0.5312,67.40625 8.963,49.16978 36.6515,86.98835 79.0625,107.9375 21.8187,10.77749 40.9091,15.77626 72.5625,19.03125 8.6322,0.88767 54.6519,-0.33983 66.5,-1.78125 23.2396,-2.82731 45.9323,-7.99585 64.25,-14.625 7.6526,-2.76945 8.75,-3.45564 8.75,-5.53125 0,-2.81065 -11.7326,-63.51389 -12.4062,-64.1875 -0.2546,-0.25456 -2.6019,0.25622 -5.25,1.125 -8.6537,2.83904 -25.9792,6.65313 -39.5313,8.71875 -16.8564,2.56927 -54.3766,3.69155 -67.0313,2 -18.7334,-2.50411 -34.4305,-8.03299 -47.4374,-16.6875 -12.6882,-8.44235 -20.2299,-18.14031 -24.3438,-31.28125 -2.4131,-7.70802 -2.542,-11.71171 -0.4062,-12.53125 0.8699,-0.33385 48.985,-0.59375 106.9062,-0.59375 l 105.3125,0 1.1875,-6.25 c 1.8141,-9.47736 2.4552,-41.81172 1.0938,-54.9375 -2.3809,-22.95588 -7.5641,-41.84387 -16.5626,-60.3125 -20.6666,-42.41655 -52.6915,-66.68819 -99.0312,-75.09375 -7.4488,-1.35115 -19.6018,-1.98223 -31.9062,-1.90625 z m -3.6563,65.5 c 26.9726,0.0545 42.6406,10.6145 52.9375,35.65625 1.5447,3.75673 3.1528,8.41875 3.5625,10.34375 1.3787,6.47733 2.4053,16.243 1.875,17.625 -0.8071,2.1031 -123.0989,2.04151 -123.9063,-0.0625 -0.3034,-0.79065 0.4007,-5.11175 1.5626,-9.59375 8.7262,-33.66444 32.8628,-54.03165 63.9687,-53.96875 z"
       style="fill:#ab2a3b"
       inkscape:connector-curvature="0" />
    <path
       inkscape:connector-curvature="0"
       id="path3611"
       d="m 1963.8889,480.50284 c -30.5209,-4.78922 -55.023,-19.91371 -71.207,-43.95411 -11.8348,-17.57987 -19.911,-44.21273 -22.2565,-73.39522 -0.6189,-7.69999 -1.0365,-51.71463 -1.0365,-109.25 l 0,-96.35478 30,0 30,0 0,91.89405 c 0,91.22749 0.3876,104.37481 3.5394,120.05057 6.7024,33.3349 24.2146,54.17364 50.9882,60.67378 10.2409,2.48629 29.5601,2.23862 39.8827,-0.51129 15.0034,-3.99687 28.0015,-11.59901 39.2645,-22.96451 10.7222,-10.81981 17.6514,-22.40157 21.9444,-36.67866 1.6645,-5.53554 1.8169,-13.38062 2.1224,-109.21394 l 0.3292,-103.25 29.8956,0 29.8957,0 0.5509,150.25 c 0.3031,82.6375 0.8184,153.9625 1.1451,158.5 l 0.5942,8.25 -26.0308,0 -26.0309,0 -0.527,-3.25 c -0.2898,-1.7875 -1.4678,-13.13319 -2.6177,-25.21265 -1.1499,-12.07945 -2.3097,-22.31695 -2.5773,-22.75 -1.0115,-1.63662 -2.1522,-0.58733 -6.8736,6.32264 -10.2677,15.02734 -26.303,29.6184 -41.495,37.75782 -8.4908,4.54912 -22.774,9.5715 -33.3586,11.72991 -8.7503,1.78433 -37.9449,2.64255 -46.1414,1.35639 z"
       style="fill:#ab2a3b" />
    <path
       inkscape:connector-curvature="0"
       id="path3609"
       d="m 2448.9956,480.01273 c -37.5566,-7.11105 -57.6966,-30.46975 -65.219,-75.64189 -1.5083,-9.05728 -1.7905,-22.0243 -2.3033,-105.82211 l -0.5844,-95.5 -24.5,-0.5 -24.5,-0.5 0,-22 0,-22 24.5,-0.56241 c 13.475,-0.30932 24.6125,-0.64682 24.75,-0.75 0.1375,-0.10317 0.25,-13.21103 0.25,-29.12857 0,-22.05465 0.2974,-29.133494 1.25,-29.750004 2.1795,-1.41061 56.0928,-17.215155 56.9398,-16.691735 0.4456,0.27541 0.8102,17.097635 0.8102,37.382719 0,28.40743 0.2872,37.06786 1.25,37.69098 0.6875,0.44496 19.7,1.03402 42.25,1.30902 l 41,0.5 0,22 0,22 -42,0.5 -42,0.5 0,93 c 0,84.61249 0.1559,93.66793 1.7287,100.40594 6.6209,28.36419 22.6232,38.32635 56.5812,35.22433 7.0717,-0.646 14.3465,-1.60154 16.1663,-2.12343 1.8197,-0.52189 3.6279,-0.75151 4.0182,-0.51027 0.3904,0.24124 1.0059,6.1907 1.3679,13.22102 0.362,7.03033 0.9375,16.90861 1.279,21.95174 l 0.6209,9.16933 -6.6219,2.04529 c -11.6896,3.61056 -23.6332,5.23409 -41.6403,5.66034 -12.8366,0.30386 -19.6034,0.016 -25.3933,-1.08029 z"
       style="fill:#ab2a3b" />
    <path
       inkscape:connector-curvature="0"
       id="path3607"
       d="m 2641.6237,480.5465 c -10.6277,-1.11629 -26.4382,-4.34349 -37.2348,-7.6003 -10.5018,-3.16788 -29.4685,-11.05218 -30.986,-12.88058 -0.8564,-1.03189 0.3275,-6.02328 4.9811,-21.00098 3.3574,-10.80607 6.5238,-20.75041 7.0363,-22.09854 l 0.9319,-2.45116 12.2139,6.12262 c 13.6214,6.82818 27.8146,11.80615 41.3228,14.49314 13.4403,2.67346 40.27,2.48626 50.6435,-0.35336 16.7787,-4.59295 27.4159,-12.5114 33.5906,-25.00513 3.7104,-7.50751 3.7652,-7.78992 3.7208,-19.17162 -0.037,-9.54301 -0.4311,-12.5083 -2.2644,-17.05186 -6.8433,-16.96021 -20.6095,-26.47756 -58.6533,-40.55061 -42.6955,-15.79379 -65.254,-31.9564 -77.5267,-55.54612 -7.8117,-15.01506 -9.9828,-33.7191 -6.0987,-52.53974 6.6857,-32.39559 33.2863,-59.16592 69.035,-69.4757 27.8708,-8.03782 69.2699,-6.87673 98.0532,2.75001 11.6608,3.90003 24,9.98662 24,11.83855 0,2.09236 -12.839,39.76262 -13.9209,40.84448 -0.4553,0.45529 -4.3718,-0.94885 -8.7034,-3.12033 -17.9823,-9.01466 -33.5685,-13.01833 -53.8757,-13.83914 -16.2132,-0.65532 -25.2624,0.7859 -35,5.57427 -8.158,4.01163 -16.0978,12.00995 -19.9175,20.06433 -2.8361,5.98053 -3.0825,7.34083 -3.0825,17.02103 0,9.86071 0.2051,10.93761 3.2677,17.15868 6.6459,13.49979 21.5709,23.16608 55.2323,35.77173 54.8202,20.52926 77.9472,40.28594 86.1428,73.589 3.0737,12.48977 3.0728,32.22202 0,44.83655 -9.031,37.05119 -40.2861,62.64776 -86.8791,71.15024 -10.3234,1.88384 -43.7414,2.76096 -56.027,1.47054 z"
       style="fill:#ab2a3b" />
    <path
       inkscape:connector-curvature="0"
       id="path3605"
       d="m 917.38889,241.04873 0,-233.5000019 50,0 50.00001,0 0,233.5000019 0,233.5 -50.00001,0 -50,0 0,-233.5 z"
       style="fill:#ab2a3b" />
    <path
       inkscape:connector-curvature="0"
       id="path3603"
       d="m 1461.8543,473.29873 c -0.2595,-0.6875 -0.5829,-61.775 -0.7186,-135.75 l -0.2468,-134.5 -21.75,-0.2695 -21.75,-0.2695 0,-22.4805 0,-22.4805 19.75,-0.0137 c 10.8625,-0.008 20.6851,-0.26477 21.8281,-0.57168 1.9825,-0.53234 2.1336,-1.62424 3.2866,-23.73634 1.4439,-27.69247 3.8151,-41.897719 9.9616,-59.678329 10.6164,-30.71075 33.4256,-55.29614 61.0843,-65.8410429 22.793,-8.68986023 54.4703,-10.1686402 80.0894,-3.7387902 12.5775,3.1567002 15,4.1749402 15.0001,6.3050801 1e-4,3.6348 -6.2261,42.804283 -6.9223,43.547703 -0.398,0.42512 -2.2659,0.12884 -4.1507,-0.6584 -11.7625,-4.91273 -39.0139,-6.66419 -50.3748,-3.23761 -31.2053,9.41181 -45.5286,37.48092 -45.5464,89.256429 -0.01,16.9249 0.021,17.1407 2.2441,17.73634 1.2375,0.33164 18.7961,0.60913 39.0191,0.61664 l 36.7692,0.0137 -0.2692,22.25 -0.2691,22.25 -37.9485,0.26222 c -28.8322,0.19922 -38.1374,0.55957 -38.7347,1.5 -0.4324,0.68078 -0.7931,61.87528 -0.8015,135.98778 l -0.015,134.75 -29.5314,0 c -22.7068,0 -29.6404,-0.28887 -30.0032,-1.25 z"
       style="fill:#ab2a3b" />
    <path
       inkscape:connector-curvature="0"
       id="path3601"
       d="m 1656.3697,359.79873 c -0.018,-105.96255 -0.9532,-177.16342 -2.5619,-195 l -0.6539,-7.25 26.1489,0 c 20.0341,0 26.2446,0.2923 26.5582,1.25 0.2251,0.6875 1.1376,13.625 2.0279,28.75 0.8903,15.125 1.8028,28.0625 2.0279,28.75 0.7948,2.42729 2.5083,1.20011 4.1888,-3 12.0791,-30.18946 39.1553,-54.28535 68.9544,-61.36447 7.1198,-1.69138 30.8468,-2.41958 33.1172,-1.01638 0.9022,0.55763 1.2117,7.89633 1.2117,28.73518 l 0,27.9863 -3.75,-0.77578 c -2.0625,-0.42668 -9.15,-0.7233 -15.75,-0.65917 -23.5308,0.22866 -39.9207,7.48613 -56.5,25.01836 -15.5828,16.47841 -22.7238,34.87705 -24.9669,64.32596 -0.587,7.70644 -1.0293,49.0124 -1.0307,96.25 l 0,82.75 -29.5,0 -29.5,0 -0.019,-114.75 z"
       style="fill:#ab2a3b" />
    <path
       inkscape:connector-curvature="0"
       id="path3599"
       d="m 2214.3889,316.04873 0,-158.5 29.5,0 29.5,0 0,158.5 0,158.5 -29.5,0 -29.5,0 0,-158.5 z"
       style="fill:#ab2a3b" />
    <path
       inkscape:connector-curvature="0"
       id="path3541"
       d="m 2231.6749,96.153226 c -10.7139,-3.488825 -19.557,-11.583865 -23.4404,-21.457405 -1.7216,-4.37744 -2.2327,-7.783 -2.273,-15.14709 -0.045,-8.26444 0.2953,-10.24369 2.6178,-15.21806 3.7346,-7.99884 10.5303,-14.91751 18.0753,-18.40242 5.7252,-2.64436 7.1735,-2.87952 17.7343,-2.87952 13.404,0 17.7581,1.47501 25.5662,8.66089 9.3349,8.59102 13.0478,18.05085 12.1613,30.98475 -0.9709,14.16416 -8.8081,25.89538 -20.9932,31.42388 -5.1867,2.353265 -7.8306,2.877175 -15.7343,3.117875 -6.0927,0.18555 -11.0114,-0.20285 -13.714,-1.0829 z"
       style="fill:#ab2a3b" />
  </g>
</svg>
