<?xml version="1.0" encoding="UTF-8" standalone="no"?>
<!-- Created with Inkscape (http://www.inkscape.org/) -->

<svg
   xmlns:dc="http://purl.org/dc/elements/1.1/"
   xmlns:cc="http://creativecommons.org/ns#"
   xmlns:rdf="http://www.w3.org/1999/02/22-rdf-syntax-ns#"
   xmlns:svg="http://www.w3.org/2000/svg"
   xmlns="http://www.w3.org/2000/svg"
   xmlns:sodipodi="http://sodipodi.sourceforge.net/DTD/sodipodi-0.dtd"
   xmlns:inkscape="http://www.inkscape.org/namespaces/inkscape"
   width="30.90156mm"
   height="13.347803mm"
   viewBox="0 0 109.49372 47.295365"
   id="svg2"
   version="1.1"
   inkscape:version="0.91 r13725"
   sodipodi:docname="tldr.svg">
  <defs
     id="defs4" />
  <sodipodi:namedview
     id="base"
     pagecolor="#ffffff"
     bordercolor="#666666"
     borderopacity="1.0"
     inkscape:pageopacity="0.0"
     inkscape:pageshadow="2"
     inkscape:zoom="3.959798"
     inkscape:cx="48.305602"
     inkscape:cy="50.963268"
     inkscape:document-units="px"
     inkscape:current-layer="layer1"
     showgrid="false"
     showguides="true"
     inkscape:guide-bbox="true"
     fit-margin-top="0"
     fit-margin-left="0"
     fit-margin-right="0"
     fit-margin-bottom="0"
     inkscape:window-width="1920"
     inkscape:window-height="1396"
     inkscape:window-x="0"
     inkscape:window-y="22"
     inkscape:window-maximized="0">
    <sodipodi:guide
       position="76.451042,8.592803"
       orientation="0,1"
       id="guide3348" />
  </sodipodi:namedview>
  <metadata
     id="metadata7">
    <rdf:RDF>
      <cc:Work
         rdf:about="">
        <dc:format>image/svg+xml</dc:format>
        <dc:type
           rdf:resource="http://purl.org/dc/dcmitype/StillImage" />
        <dc:title></dc:title>
      </cc:Work>
    </rdf:RDF>
  </metadata>
  <g
     inkscape:label="Layer 1"
     inkscape:groupmode="layer"
     id="layer1"
     transform="translate(-60.334682,-218.65964)">
    <g
       transform="translate(-12.142857,4.2857143)"
       style="font-style:normal;font-variant:normal;font-weight:bold;font-stretch:normal;font-size:50px;line-height:125%;font-family:Sans;-inkscape-font-specification:'Sans Bold';letter-spacing:0px;word-spacing:0px;fill:#888888;fill-opacity:1;stroke:none;stroke-width:1px;stroke-linecap:butt;stroke-linejoin:miter;stroke-opacity:1"
       id="flowRoot3336">
      <path
         inkscape:connector-curvature="0"
         d="m 93.107422,252.39194 q -1.416016,0.36622 -3.00293,0.56153 -1.586914,0.21972 -3.881836,0.21972 -5.126953,0 -7.641601,-2.07519 -2.490235,-2.0752 -2.490235,-7.10449 l 0,-12.81739 -3.613281,0 0,-5.95703 3.613281,0 0,-7.83691 8.789063,0 0,7.83691 8.227539,0 0,5.95703 -8.227539,0 0,9.7168 q 0,1.44043 0.02441,2.51465 0.02441,1.07422 0.390625,1.92871 0.341797,0.85449 1.196289,1.36719 0.878906,0.48828 2.539062,0.48828 0.683594,0 1.782227,-0.29297 1.123047,-0.29297 1.5625,-0.53711 l 0.732422,0 0,6.03027 z"
         id="path4151" />
      <path
         inkscape:connector-curvature="0"
         d="m 107.12109,252.63608 -8.789059,0 0,-37.98828 8.789059,0 0,37.98828 z"
         id="path4153" />
      <path
         inkscape:connector-curvature="0"
         d="m 125.89551,234.81382 -9.13086,0 0,-9.59473 9.13086,0 0,9.59473 z m 1.48926,8.22754 -8.78907,18.62793 -5.44433,0 4.80957,-18.62793 9.42383,0 z"
         id="path4155" />
    </g>
    <g
       style="font-style:normal;font-weight:normal;font-size:50px;line-height:125%;font-family:Sans;letter-spacing:0px;word-spacing:0px;fill:#888888;fill-opacity:1;stroke:none;stroke-width:1px;stroke-linecap:butt;stroke-linejoin:miter;stroke-opacity:1"
       id="text3344">
      <path
         d="m 143.77859,256.64792 -4.58984,0 0,-2.85645 q -1.97754,1.70899 -4.12598,2.66114 -2.14843,0.95214 -4.66308,0.95214 -4.88281,0 -7.76367,-3.75976 -2.85645,-3.75977 -2.85645,-10.42481 0,-3.46679 0.97656,-6.17675 1.00098,-2.70996 2.68555,-4.61426 1.66016,-1.85547 3.85742,-2.83203 2.22168,-0.97657 4.58985,-0.97657 2.14843,0 3.80859,0.46387 1.66016,0.43946 3.49121,1.3916 l 0,-11.8164 4.58984,0 0,37.98828 z m -4.58984,-6.71387 0,-15.64941 q -1.85547,-0.83008 -3.32031,-1.14746 -1.46485,-0.31739 -3.19824,-0.31739 -3.85743,0 -6.00586,2.68555 -2.14844,2.68555 -2.14844,7.61719 0,4.8584 1.66016,7.39746 1.66015,2.51465 5.32226,2.51465 1.95313,0 3.95508,-0.85449 2.00195,-0.87891 3.73535,-2.2461 z"
         id="path4168"
         inkscape:connector-curvature="0" />
      <path
         d="m 169.8284,234.38229 -0.24414,0 q -1.02539,-0.24414 -2.00195,-0.34179 -0.95215,-0.12207 -2.27051,-0.12207 -2.12403,0 -4.10156,0.95214 -1.97754,0.92774 -3.8086,2.417 l 0,19.36035 -4.58984,0 0,-27.27051 4.58984,0 0,4.02832 q 2.73438,-2.19726 4.80957,-3.10058 2.09961,-0.92774 4.27246,-0.92774 1.19629,0 1.7334,0.0732 0.53711,0.0488 1.61133,0.21973 l 0,4.71191 z"
         id="path4170"
         inkscape:connector-curvature="0" />
    </g>
  </g>
</svg>
